<?xml version="1.0" encoding="UTF-8" standalone="no"?>
<svg
   xmlns:dc="http://purl.org/dc/elements/1.1/"
   xmlns:cc="http://creativecommons.org/ns#"
   xmlns:rdf="http://www.w3.org/1999/02/22-rdf-syntax-ns#"
   xmlns:svg="http://www.w3.org/2000/svg"
   xmlns="http://www.w3.org/2000/svg"
   xmlns:sodipodi="http://sodipodi.sourceforge.net/DTD/sodipodi-0.dtd"
   xmlns:inkscape="http://www.inkscape.org/namespaces/inkscape"
   width="19.64855mm"
   height="16.938183mm"
   viewBox="0 0 19.64855 16.938183"
   version="1.1"
   id="svg2108"
   inkscape:version="1.0.2-2 (e86c870879, 2021-01-15)"
   sodipodi:docname="arkkoMatic-logo-robot.svg">
  <defs
     id="defs2102" />
  <sodipodi:namedview
     id="base"
     pagecolor="#ffffff"
     bordercolor="#666666"
     borderopacity="1.0"
     inkscape:pageopacity="0.0"
     inkscape:pageshadow="2"
     inkscape:zoom="2.8"
     inkscape:cx="53.618263"
     inkscape:cy="37.874734"
     inkscape:document-units="mm"
     inkscape:current-layer="layer1"
     inkscape:document-rotation="0"
     showgrid="false"
     inkscape:window-width="1267"
     inkscape:window-height="1032"
     inkscape:window-x="52"
     inkscape:window-y="0"
     inkscape:window-maximized="0" />
  <metadata
     id="metadata2105">
    <rdf:RDF>
      <cc:Work
         rdf:about="">
        <dc:format>image/svg+xml</dc:format>
        <dc:type
           rdf:resource="http://purl.org/dc/dcmitype/StillImage" />
        <dc:title></dc:title>
      </cc:Work>
    </rdf:RDF>
  </metadata>
  <g
     inkscape:label="Layer 1"
     inkscape:groupmode="layer"
     id="layer1"
     transform="translate(-116.77794,-21.846794)">
    <g
       id="g2604"
       transform="translate(-79.609798,461.9085)">
      <rect
         style="fill:#d45500;fill-rule:evenodd;stroke:none;stroke-width:0.940341;stroke-linecap:round;stroke-linejoin:round;stroke-miterlimit:4;stroke-dasharray:none;stroke-opacity:1;paint-order:fill markers stroke"
         id="rect1443-2-2-8-8-0-3-5"
         width="2.5953748"
         height="6.8182077"
         x="257.98199"
         y="-416.10165"
         transform="matrix(0.9955656,-0.09406987,0.12005563,0.99276717,0,0)"
         inkscape:transform-center-x="0.81929342"
         inkscape:transform-center-y="-4.1720294" />
      <path
         id="rect1445-6-9-69-3-4-8-0"
         style="fill:#d45500;fill-rule:evenodd;stroke:none;stroke-width:0.903062;stroke-linecap:round;stroke-linejoin:round;stroke-miterlimit:4;stroke-dasharray:none;stroke-opacity:1;paint-order:fill markers stroke"
         d="m 201.28729,-436.80484 1.46412,2.96613 6.31247,-3.1159 a 1.6515531,1.3468766 63.728506 0 0 0.0661,-0.0298 1.6515531,1.3468766 63.728506 0 0 0.47674,-2.07716 1.6515531,1.3468766 63.728506 0 0 -1.91477,-0.8961 l -0.003,-0.007 z" />
      <path
         style="fill:#aa4400;fill-opacity:1;stroke:none;stroke-width:0.264583px;stroke-linecap:butt;stroke-linejoin:miter;stroke-opacity:1"
         d="m 201.51163,-435.60493 -3.11278,-1.70517 -2.01111,3.62194 0.57979,0.38539 1.93875,-2.53018 1.36625,1.33365 z"
         id="path1482-3-7-7-7-7-4-4"
         inkscape:transform-center-x="1.9713595"
         inkscape:transform-center-y="-0.41444284" />
      <path
         style="fill:#aa4400;fill-opacity:1;stroke:none;stroke-width:0.264583px;stroke-linecap:butt;stroke-linejoin:miter;stroke-opacity:1"
         d="m 201.81857,-435.05354 -0.22009,3.5424 -4.13625,-0.23325 -0.0163,-0.696 3.17447,-0.28846 -0.39822,-1.86726 z"
         id="path1482-9-4-1-2-4-8-0-0"
         inkscape:transform-center-x="1.3304061"
         inkscape:transform-center-y="1.6428613" />
      <path
         id="rect1445-8-7-2-7-6-8-8-5"
         style="fill:#d45500;fill-rule:evenodd;stroke:none;stroke-width:0.439404;stroke-linecap:round;stroke-linejoin:round;stroke-miterlimit:4;stroke-dasharray:none;stroke-opacity:1;paint-order:fill markers stroke"
         d="m 204.1708,-435.62041 -0.71894,-1.43999 -3.06452,1.5301 a 0.8035975,0.65535082 63.467158 0 0 -0.0321,0.0147 0.8035975,0.65535082 63.467158 0 0 -0.22735,1.01173 0.8035975,0.65535082 63.467158 0 0 0.93365,0.43176 l 0.002,0.003 z" />
      <rect
         style="fill:#803300;fill-rule:evenodd;stroke:none;stroke-width:1.30273;stroke-linecap:round;stroke-linejoin:round;stroke-miterlimit:4;stroke-dasharray:none;stroke-opacity:1;paint-order:fill markers stroke"
         id="rect1460-0-2-8-3-31-2-7"
         width="0.88516557"
         height="4.5837388"
         x="374.68497"
         y="-302.24652"
         ry="0.33072913"
         rx="0.33072916"
         transform="rotate(-26.431732)" />
      <circle
         style="fill:#803300;fill-opacity:1;fill-rule:evenodd;stroke-width:1;stroke-linecap:round;stroke-linejoin:round;paint-order:fill markers stroke"
         id="path2513"
         cx="208.1089"
         cy="-438.23633"
         r="1.1" />
      <g
         id="g2591"
         transform="translate(-0.03795041)">
        <path
           id="path1440-5-9-4-2-2-7-3"
           style="fill:#d45500;fill-rule:evenodd;stroke:none;stroke-width:1;stroke-linecap:round;stroke-linejoin:round;stroke-miterlimit:4;stroke-dasharray:none;stroke-opacity:1;paint-order:fill markers stroke"
           d="m 213.31731,-427.99858 c 0,0.42986 0.0115,1.68963 -0.0945,2.083 -0.31689,1.17622 -2.44365,0.73374 -4.1815,0.7524 -1.66552,0.0179 -2.88988,0.23073 -3.48092,-1.25563 -0.17526,-0.44075 -0.11078,-0.9917 -0.12118,-1.4952 -0.0455,-2.20143 1.65574,-4.02983 3.81419,-4.09937 2.15846,-0.0695 3.96948,1.64571 4.0604,3.84568"
           sodipodi:nodetypes="csssssc" />
        <path
           id="path1440-5-9-4-2-2-7-3-3"
           style="fill:#803300;fill-rule:evenodd;stroke:none;stroke-width:0.607904;stroke-linecap:round;stroke-linejoin:round;stroke-miterlimit:4;stroke-dasharray:none;stroke-opacity:1;paint-order:fill markers stroke"
           d="m 211.77228,-428.28123 c 0,0.26131 0.007,1.02713 -0.0575,1.26626 -0.19264,0.71503 -1.4855,0.44605 -2.54195,0.45739 -1.01247,0.0109 -1.75677,0.14026 -2.11606,-0.7633 -0.10654,-0.26794 -0.0674,-0.60286 -0.0737,-0.90894 -0.0277,-1.33826 1.00653,-2.44975 2.31866,-2.49202 1.31214,-0.0423 2.41307,1.00043 2.46834,2.3378"
           sodipodi:nodetypes="csssssc" />
      </g>
      <rect
         style="fill:#ff6600;fill-rule:evenodd;stroke:none;stroke-width:0.904071;stroke-linecap:round;stroke-linejoin:round;stroke-miterlimit:4;stroke-dasharray:none;stroke-opacity:1;paint-order:fill markers stroke"
         id="rect1438-3-4-3-2-9-4-6"
         width="13.394933"
         height="4.6386847"
         x="202.64136"
         y="-427.76221"
         rx="0.46772167"
         ry="0.46772167" />
    </g>
  </g>
</svg>
