<svg xmlns="http://www.w3.org/2000/svg" width="74.262" height="64.018" viewBox="0 0 19.649 16.938">
    <g transform="translate(-196.388 440.062)">
        <path style="fill:#d45500;fill-rule:evenodd;stroke:none;stroke-width:.940341;stroke-linecap:round;stroke-linejoin:round;stroke-miterlimit:4;stroke-dasharray:none;stroke-opacity:1;paint-order:fill markers stroke" transform="matrix(.99557 -.09407 .12006 .99277 0 0)" d="M257.982-416.102h2.595v6.818h-2.595z"/>
        <path style="fill:#d45500;fill-rule:evenodd;stroke:none;stroke-width:.903062;stroke-linecap:round;stroke-linejoin:round;stroke-miterlimit:4;stroke-dasharray:none;stroke-opacity:1;paint-order:fill markers stroke" d="m201.287-436.805 1.464 2.966 6.313-3.116a1.652 1.347 63.729 0 0 .066-.03 1.652 1.347 63.729 0 0 .477-2.077 1.652 1.347 63.729 0 0-1.915-.896l-.003-.007z"/>
        <path style="fill:#a40;fill-opacity:1;stroke:none;stroke-width:.264583px;stroke-linecap:butt;stroke-linejoin:miter;stroke-opacity:1" d="m201.512-435.605-3.113-1.705-2.011 3.622.58.385 1.938-2.53 1.367 1.334z"/>
        <path style="fill:#a40;fill-opacity:1;stroke:none;stroke-width:.264583px;stroke-linecap:butt;stroke-linejoin:miter;stroke-opacity:1" d="m201.819-435.054-.22 3.543-4.137-.233-.016-.696 3.174-.289-.398-1.867z"/>
        <path style="fill:#d45500;fill-rule:evenodd;stroke:none;stroke-width:.439404;stroke-linecap:round;stroke-linejoin:round;stroke-miterlimit:4;stroke-dasharray:none;stroke-opacity:1;paint-order:fill markers stroke" d="m204.17-435.62-.718-1.44-3.065 1.53a.804.655 63.467 0 0-.032.014.804.655 63.467 0 0-.227 1.012.804.655 63.467 0 0 .934.432l.002.003z"/>
        <rect style="fill:#803300;fill-rule:evenodd;stroke:none;stroke-width:1.30273;stroke-linecap:round;stroke-linejoin:round;stroke-miterlimit:4;stroke-dasharray:none;stroke-opacity:1;paint-order:fill markers stroke" width=".885" height="4.584" x="374.685" y="-302.247" ry=".331" rx=".331" transform="rotate(-26.432)"/>
        <circle style="fill:#803300;fill-opacity:1;fill-rule:evenodd;stroke-width:1;stroke-linecap:round;stroke-linejoin:round;paint-order:fill markers stroke" cx="208.109" cy="-438.236" r="1.1"/>
        <path style="fill:#d45500;fill-rule:evenodd;stroke:none;stroke-width:1;stroke-linecap:round;stroke-linejoin:round;stroke-miterlimit:4;stroke-dasharray:none;stroke-opacity:1;paint-order:fill markers stroke" d="M213.317-427.999c0 .43.012 1.69-.094 2.083-.317 1.177-2.444.734-4.182.753-1.665.018-2.89.23-3.48-1.256-.176-.44-.111-.992-.122-1.495-.045-2.201 1.656-4.03 3.814-4.1 2.159-.069 3.97 1.646 4.06 3.846" transform="translate(-.038)"/>
        <path style="fill:#803300;fill-rule:evenodd;stroke:none;stroke-width:.607904;stroke-linecap:round;stroke-linejoin:round;stroke-miterlimit:4;stroke-dasharray:none;stroke-opacity:1;paint-order:fill markers stroke" d="M211.772-428.281c0 .261.007 1.027-.057 1.266-.193.715-1.486.446-2.542.457-1.013.011-1.757.14-2.116-.763-.107-.268-.068-.603-.074-.909-.028-1.338 1.007-2.45 2.319-2.492 1.312-.042 2.413 1 2.468 2.338" transform="translate(-.038)"/>
        <rect style="fill:#f60;fill-rule:evenodd;stroke:none;stroke-width:.904071;stroke-linecap:round;stroke-linejoin:round;stroke-miterlimit:4;stroke-dasharray:none;stroke-opacity:1;paint-order:fill markers stroke" width="13.395" height="4.639" x="202.641" y="-427.762" rx=".468" ry=".468"/>
    </g>
</svg>
